<svg width="24" height="24" viewBox="0 0 24 24" fill="none" xmlns="http://www.w3.org/2000/svg">
<path d="M11.8066 0C5.29647 0 0 5.29647 0 11.8066C0 18.3163 5.29647 23.6132 11.8066 23.6132C18.3163 23.6132 23.6132 18.3163 23.6132 11.8066C23.6132 5.29647 18.3172 0 11.8066 0ZM14.7428 12.2223H12.822C12.822 15.2911 12.822 19.0686 12.822 19.0686H9.97565C9.97565 19.0686 9.97565 15.3278 9.97565 12.2223H8.62264V9.80254H9.97565V8.23743C9.97565 7.1165 10.5083 5.36496 12.8481 5.36496L14.9573 5.37304V7.7219C14.9573 7.7219 13.6756 7.7219 13.4264 7.7219C13.1772 7.7219 12.8229 7.8465 12.8229 8.38105V9.80302H14.9915L14.7428 12.2223Z" fill="white"/>
</svg>
