<svg class="hidden" xmlns="http://www.w3.org/2000/svg">
		<symbol viewBox="0 0 24 24" id="facebook">
			<path d="M11.8066 0C5.29647 0 0 5.29647 0 11.8066C0 18.3163 5.29647 23.6132 11.8066 23.6132C18.3163 23.6132 23.6132 18.3163 23.6132 11.8066C23.6132 5.29647 18.3172 0 11.8066 0ZM14.7428 12.2223H12.822C12.822 15.2911 12.822 19.0686 12.822 19.0686H9.97565C9.97565 19.0686 9.97565 15.3278 9.97565 12.2223H8.62264V9.80254H9.97565V8.23743C9.97565 7.1165 10.5083 5.36496 12.8481 5.36496L14.9573 5.37304V7.7219C14.9573 7.7219 13.6756 7.7219 13.4264 7.7219C13.1772 7.7219 12.8229 7.8465 12.8229 8.38105V9.80302H14.9915L14.7428 12.2223Z" />
		</symbol>

		<symbol viewBox="0 0 25 24" id="youtube">
			<path d="M10.7891 14.0185L14.6297 11.8066L10.7891 9.59467V14.0185Z" />
			<path d="M12.2597 0C5.74012 0 0.453125 5.287 0.453125 11.8066C0.453125 18.3262 5.74012 23.6132 12.2597 23.6132C18.7794 23.6132 24.0663 18.3262 24.0663 11.8066C24.0663 5.287 18.7794 0 12.2597 0ZM19.6371 11.8187C19.6371 11.8187 19.6371 14.2131 19.3333 15.3677C19.1631 15.9997 18.6648 16.498 18.0328 16.6681C16.8782 16.972 12.2597 16.972 12.2597 16.972C12.2597 16.972 7.65336 16.972 6.48668 16.656C5.8547 16.4859 5.35639 15.9875 5.18615 15.3555C4.88223 14.2131 4.88223 11.8066 4.88223 11.8066C4.88223 11.8066 4.88223 9.41236 5.18615 8.25775C5.35621 7.62576 5.86677 7.11521 6.48668 6.94514C7.64129 6.64122 12.2597 6.64122 12.2597 6.64122C12.2597 6.64122 16.8782 6.64122 18.0328 6.95721C18.6648 7.12728 19.1631 7.62576 19.3333 8.25775C19.6493 9.41236 19.6371 11.8187 19.6371 11.8187Z" />
		</symbol>

		<symbol id="messager" viewBox="0 0 25 24" fill-rule="evenodd" clip-rule="evenodd">
			<path d="M12 0c-6.626 0-12 5.372-12 12 0 6.627 5.374 12 12 12 6.627 0 12-5.373 12-12 0-6.628-5.373-12-12-12zm0 5.5c-3.866 0-7 2.902-7 6.481 0 2.04 1.018 3.86 2.609 5.048v2.471l2.383-1.308c.636.176 1.31.271 2.008.271 3.866 0 7-2.902 7-6.482 0-3.579-3.134-6.481-7-6.481zm.696 8.728l-1.783-1.901-3.478 1.901 3.826-4.061 1.826 1.901 3.435-1.901-3.826 4.061z"/>
		</symbol>
		<symbol  id="whatsapp" 
		viewBox="0 0 308 308">
		<path id="XMLID_469_" d="M227.904,176.981c-0.6-0.288-23.054-11.345-27.044-12.781c-1.629-0.585-3.374-1.156-5.23-1.156
		c-3.032,0-5.579,1.511-7.563,4.479c-2.243,3.334-9.033,11.271-11.131,13.642c-0.274,0.313-0.648,0.687-0.872,0.687
		c-0.201,0-3.676-1.431-4.728-1.888c-24.087-10.463-42.37-35.624-44.877-39.867c-0.358-0.61-0.373-0.887-0.376-0.887
		c0.088-0.323,0.898-1.135,1.316-1.554c1.223-1.21,2.548-2.805,3.83-4.348c0.607-0.731,1.215-1.463,1.812-2.153
		c1.86-2.164,2.688-3.844,3.648-5.79l0.503-1.011c2.344-4.657,0.342-8.587-0.305-9.856c-0.531-1.062-10.012-23.944-11.02-26.348
		c-2.424-5.801-5.627-8.502-10.078-8.502c-0.413,0,0,0-1.732,0.073c-2.109,0.089-13.594,1.601-18.672,4.802
		c-5.385,3.395-14.495,14.217-14.495,33.249c0,17.129,10.87,33.302,15.537,39.453c0.116,0.155,0.329,0.47,0.638,0.922
		c17.873,26.102,40.154,45.446,62.741,54.469c21.745,8.686,32.042,9.69,37.896,9.69c0.001,0,0.001,0,0.001,0
		c2.46,0,4.429-0.193,6.166-0.364l1.102-0.105c7.512-0.666,24.02-9.22,27.775-19.655c2.958-8.219,3.738-17.199,1.77-20.458
		C233.168,179.508,230.845,178.393,227.904,176.981z"/>
		<path id="XMLID_470_" d="M156.734,0C73.318,0,5.454,67.354,5.454,150.143c0,26.777,7.166,52.988,20.741,75.928L0.212,302.716
		c-0.484,1.429-0.124,3.009,0.933,4.085C1.908,307.58,2.943,308,4,308c0.405,0,0.813-0.061,1.211-0.188l79.92-25.396
		c21.87,11.685,46.588,17.853,71.604,17.853C240.143,300.27,308,232.923,308,150.143C308,67.354,240.143,0,156.734,0z
		M156.734,268.994c-23.539,0-46.338-6.797-65.936-19.657c-0.659-0.433-1.424-0.655-2.194-0.655c-0.407,0-0.815,0.062-1.212,0.188
		l-40.035,12.726l12.924-38.129c0.418-1.234,0.209-2.595-0.561-3.647c-14.924-20.392-22.813-44.485-22.813-69.677
		c0-65.543,53.754-118.867,119.826-118.867c66.064,0,119.812,53.324,119.812,118.867
		C276.546,215.678,222.799,268.994,156.734,268.994z"/>
	</symbol>
	</svg>